<?xml version="1.0" encoding="UTF-8" standalone="no"?>
<!-- Created with Inkscape (http://www.inkscape.org/) -->

<svg
   xmlns:dc="http://purl.org/dc/elements/1.1/"
   xmlns:cc="http://creativecommons.org/ns#"
   xmlns:rdf="http://www.w3.org/1999/02/22-rdf-syntax-ns#"
   xmlns:svg="http://www.w3.org/2000/svg"
   xmlns="http://www.w3.org/2000/svg"
   xmlns:sodipodi="http://sodipodi.sourceforge.net/DTD/sodipodi-0.dtd"
   xmlns:inkscape="http://www.inkscape.org/namespaces/inkscape"
   width="24"
   height="24"
   id="svg7833"
   version="1.1"
   inkscape:version="0.91 r13725"
   viewBox="0 0 24 24"
   sodipodi:docname="lc_dbtablerename.svg"
   inkscape:export-filename="/home/matthias/GIT/icons/exported-sifr/cmd/32/connector.png"
   inkscape:export-xdpi="89"
   inkscape:export-ydpi="89">
  <title
     id="title9025">LibreOffice Symbolic Icon Theme SIFR</title>
  <defs
     id="defs7835" />
  <sodipodi:namedview
     id="base"
     pagecolor="#ffffff"
     bordercolor="#666666"
     borderopacity="1.0"
     inkscape:pageopacity="0.0"
     inkscape:pageshadow="2"
     inkscape:zoom="5.6568542"
     inkscape:cx="-10.291469"
     inkscape:cy="-5.9237573"
     inkscape:current-layer="layer1"
     showgrid="true"
     inkscape:grid-bbox="true"
     inkscape:document-units="px"
     inkscape:showpageshadow="false"
     inkscape:window-width="1920"
     inkscape:window-height="1007"
     inkscape:window-x="0"
     inkscape:window-y="44"
     inkscape:window-maximized="1"
     inkscape:snap-center="true"
     inkscape:snap-nodes="true"
     inkscape:snap-global="true"
     inkscape:snap-object-midpoints="true"
     inkscape:object-paths="true"
     inkscape:snap-intersection-paths="true"
     inkscape:object-nodes="true"
     inkscape:snap-smooth-nodes="true"
     inkscape:snap-midpoints="true"
     inkscape:snap-bbox="true"
     inkscape:bbox-paths="true"
     inkscape:bbox-nodes="true"
     inkscape:snap-bbox-edge-midpoints="true"
     inkscape:snap-bbox-midpoints="true">
    <inkscape:grid
       type="xygrid"
       id="grid8381"
       empspacing="1" />
  </sodipodi:namedview>
  <metadata
     id="metadata7838">
    <rdf:RDF>
      <cc:Work
         rdf:about="">
        <dc:format>image/svg+xml</dc:format>
        <dc:type
           rdf:resource="http://purl.org/dc/dcmitype/StillImage" />
        <dc:title>LibreOffice Symbolic Icon Theme SIFR</dc:title>
        <cc:license
           rdf:resource="http://creativecommons.org/licenses/by-sa/3.0/" />
        <dc:rights>
          <cc:Agent>
            <dc:title>The Document Foundation</dc:title>
          </cc:Agent>
        </dc:rights>
        <dc:contributor>
          <cc:Agent>
            <dc:title>Matthias Freund</dc:title>
          </cc:Agent>
        </dc:contributor>
      </cc:Work>
      <cc:License
         rdf:about="http://creativecommons.org/licenses/by-sa/3.0/">
        <cc:permits
           rdf:resource="http://creativecommons.org/ns#Reproduction" />
        <cc:permits
           rdf:resource="http://creativecommons.org/ns#Distribution" />
        <cc:requires
           rdf:resource="http://creativecommons.org/ns#Notice" />
        <cc:requires
           rdf:resource="http://creativecommons.org/ns#Attribution" />
        <cc:permits
           rdf:resource="http://creativecommons.org/ns#DerivativeWorks" />
        <cc:requires
           rdf:resource="http://creativecommons.org/ns#ShareAlike" />
      </cc:License>
    </rdf:RDF>
  </metadata>
  <g
     id="layer1"
     inkscape:label="symbolic"
     inkscape:groupmode="layer"
     transform="translate(0,-8)">
    <path
       sodipodi:nodetypes="ccccccccccccccccccccccccccccccccccccccccc"
       inkscape:connector-curvature="0"
       id="path7008"
       d="m 1.00247,10.56654 -0.002,14.95806 21,0 0,-14.91836 z m 1.49752,1.5383 6.00003,-0.006 0,2.98366 -6.00003,0.006 z m 7.50003,-0.006 4.5,0 0,2.98366 -4.5,0 z m 5.99997,0.006 1.5,0 3,0 0,2.98247 -4.5,0 z M 2.5,16.57358 l 6.00002,8e-5 0,2.98367 L 2.5,19.55633 Z m 7.50002,8e-5 4.5,0 0,2.98367 -4.5,0 z m 5.99998,-8e-5 4.5,0 0,2.98247 -4.5,0 z m -13.5,4.47369 6.00002,10e-4 0,2.98368 L 2.5,24.02995 Z"
       style="color:#000000;font-style:normal;font-variant:normal;font-weight:normal;font-stretch:normal;line-height:normal;font-family:Sans;-inkscape-font-specification:Sans;text-indent:0;text-align:start;text-decoration:none;text-decoration-line:none;letter-spacing:normal;word-spacing:normal;text-transform:none;direction:ltr;block-progression:tb;writing-mode:lr-tb;baseline-shift:baseline;text-anchor:start;display:inline;overflow:visible;visibility:visible;fill:#555753;fill-opacity:1;stroke:none;stroke-width:2;marker:none;enable-background:new" />
    <path
       style="display:inline;fill:#555753;fill-opacity:1;stroke:none"
       d="m 1,25.52475 21,0 L 22,30 1,30 Z"
       id="path7012"
       inkscape:connector-curvature="0" />
    <rect
       y="25.524609"
       x="2.4999981"
       height="2.9835219"
       width="6"
       id="rect7014"
       style="display:inline;fill:#ffffff;fill-opacity:1;stroke:none" />
    <path
       sodipodi:nodetypes="ccccccccc"
       inkscape:connector-curvature="0"
       id="path7016"
       d="m 2.5,13.6084 0,-1.49003 3,0 3,0 0,1.49003 0,1.49014 -3,0 -3,0 z"
       style="display:inline;opacity:0.35;fill:#555753;fill-opacity:1;stroke:none" />
    <path
       inkscape:connector-curvature="0"
       id="path7019"
       d="m 3.26818,19.54228 c 0.42057,-0.007 1.09557,-0.007 1.5,3e-5 0.40443,0.007 0.0603,0.0134 -0.76467,0.0134 -0.825,-3e-5 -1.1559,-0.006 -0.73533,-0.0134 z"
       style="display:inline;opacity:0.35;fill:#555753;fill-opacity:1;stroke:none" />
    <path
       inkscape:connector-curvature="0"
       id="path7021"
       d="m 2.52694,18.06211 0,-1.46845 2.97657,0 2.97656,0 0,1.46845 0,1.46844 -2.97656,0 -2.97657,0 0,-1.46844 z"
       style="display:inline;opacity:0.35;fill:#555753;fill-opacity:1;stroke:none" />
    <path
       inkscape:connector-curvature="0"
       id="path7023"
       d="m 2.52694,22.53738 0,-1.46845 2.97657,0 2.97656,0 0,1.46845 0,1.46846 -2.97656,0 -2.97657,0 0,-1.46846 z"
       style="display:inline;opacity:0.35;fill:#555753;fill-opacity:1;stroke:none" />
    <path
       sodipodi:nodetypes="ccccccccc"
       inkscape:connector-curvature="0"
       id="path7025"
       d="m 2.5,27.01965 0,-1.49015 3,0 3,0 0,1.49014 0,1.49014 -3,0 -3,0 z"
       style="display:inline;opacity:0.35;fill:#555753;fill-opacity:1;stroke:none" />
    <path
       sodipodi:nodetypes="ccccccccc"
       inkscape:connector-curvature="0"
       id="path7027"
       d="m 10,13.58683 0,-1.46846 2.25351,0 2.24649,0 0,1.49003 0,1.49014 -2.24649,-0.0432 -2.25351,0 z"
       style="display:inline;opacity:0.35;fill:#555753;fill-opacity:1;stroke:none" />
    <path
       inkscape:connector-curvature="0"
       id="path7029"
       d="m 16.02694,13.58683 0,-1.46846 2.22657,0 2.22656,0 0,1.46846 0,1.46845 -2.22656,0 -2.22657,0 0,-1.46845 z"
       style="display:inline;opacity:0.35;fill:#555753;fill-opacity:1;stroke:none" />
    <path
       sodipodi:nodetypes="ccccccccccccccc"
       inkscape:connector-curvature="0"
       id="path7031"
       d="M 6.85937,18.08032 C 6.122,18.14932 5.49681,18.83469 5.5,19.57046 l 0,8.94082 L 5.50002,30 22,30.001 c 0.78538,-8e-5 1.49992,-0.70993 1.5,-1.49014 l 0,-8.94082 c -8e-5,-0.78021 -0.71462,-1.49006 -1.5,-1.49014 l -15,0 c -0.0469,-10e-4 -0.0938,-10e-4 -0.14063,0 z M 8.5,21.0606 l 12,0 0,5.96054 -12,0 z"
       style="color:#000000;font-style:normal;font-variant:normal;font-weight:normal;font-stretch:normal;line-height:normal;font-family:Sans;-inkscape-font-specification:Sans;text-indent:0;text-align:start;text-decoration:none;text-decoration-line:none;letter-spacing:normal;word-spacing:normal;text-transform:none;direction:ltr;block-progression:tb;writing-mode:lr-tb;baseline-shift:baseline;text-anchor:start;display:inline;overflow:visible;visibility:visible;fill:#ffffff;fill-opacity:1;fill-rule:nonzero;stroke:none;stroke-width:1.99999988;marker:none;enable-background:accumulate" />
    <g
       style="display:inline"
       transform="matrix(1.5,0,0,1.4901372,116.5,-1001.7324)"
       id="g7033">
      <path
         inkscape:connector-curvature="0"
         id="path7035"
         d="m -72.5,685.87402 10,0 0,7 -10,0 z"
         style="fill:#555753;fill-opacity:1;stroke:#555753;stroke-width:1;stroke-linejoin:round;stroke-miterlimit:4;stroke-opacity:1" />
      <g
         id="g7037"
         style="fill:none;stroke:#ffffff;stroke-opacity:1"
         transform="translate(-14,1)">
        <path
           sodipodi:nodetypes="ccccssc"
           inkscape:connector-curvature="0"
           d="m -58.005787,686.86441 2.50352,0 c 0.52784,0 1.00141,0.49513 1.00141,1.00039 l 0,3.00118 -3.00423,0 c -1.30799,0 -1.34352,-2.00079 0,-2.00079 l 3.00423,0"
           style="color:#000000;display:inline;overflow:visible;visibility:visible;fill:none;stroke:#ffffff;stroke-width:1;stroke-miterlimit:4;stroke-dasharray:none;stroke-opacity:1;marker:none;enable-background:accumulate"
           id="path7039" />
        <path
           style="color:#000000;display:inline;overflow:visible;visibility:visible;fill:none;stroke:#ffffff;stroke-width:1;stroke-miterlimit:4;stroke-dasharray:none;stroke-opacity:1;marker:none;enable-background:accumulate"
           d="m -52.499297,685.37128 0,5.50217 3.00423,0 c 1.30799,0 1.34352,-3.00118 0,-3.00118 l -3.00423,0"
           id="path7041"
           inkscape:connector-curvature="0"
           sodipodi:nodetypes="ccssc" />
      </g>
    </g>
    <path
       sodipodi:nodetypes="ccccccccc"
       inkscape:connector-curvature="0"
       id="path7027-3"
       d="m 10,16.987205 0,-0.868835 2.25351,0 2.24649,0 L 15,17 l 0,1 -3,0 -2,0 z"
       style="display:inline;opacity:0.35;fill:#555753;fill-opacity:1;stroke:none" />
    <path
       sodipodi:nodetypes="ccccccccc"
       inkscape:connector-curvature="0"
       id="path7027-3-6"
       d="m 16,16.987205 0,-0.868835 2.25351,0 2.24649,0 L 21,17 l 0,1 -3,0 -2,0 z"
       style="display:inline;opacity:0.35;fill:#555753;fill-opacity:1;stroke:none" />
  </g>
</svg>
