<?xml version="1.0" encoding="UTF-8" standalone="no"?>
<!-- Created with Inkscape (http://www.inkscape.org/) -->

<svg
   xmlns:dc="http://purl.org/dc/elements/1.1/"
   xmlns:cc="http://creativecommons.org/ns#"
   xmlns:rdf="http://www.w3.org/1999/02/22-rdf-syntax-ns#"
   xmlns:svg="http://www.w3.org/2000/svg"
   xmlns="http://www.w3.org/2000/svg"
   xmlns:sodipodi="http://sodipodi.sourceforge.net/DTD/sodipodi-0.dtd"
   xmlns:inkscape="http://www.inkscape.org/namespaces/inkscape"
   width="24"
   height="24"
   id="svg7833"
   version="1.1"
   inkscape:version="0.91 r13725"
   viewBox="0 0 24 24"
   sodipodi:docname="lc_dbtableedit.svg"
   inkscape:export-filename="/home/matthias/GIT/icons/exported-sifr/cmd/32/connector.png"
   inkscape:export-xdpi="89"
   inkscape:export-ydpi="89">
  <title
     id="title9025">LibreOffice Symbolic Icon Theme SIFR</title>
  <defs
     id="defs7835" />
  <sodipodi:namedview
     id="base"
     pagecolor="#ffffff"
     bordercolor="#666666"
     borderopacity="1.0"
     inkscape:pageopacity="0.0"
     inkscape:pageshadow="2"
     inkscape:zoom="11.313709"
     inkscape:cx="3.4976516"
     inkscape:cy="7.5682907"
     inkscape:current-layer="layer1"
     showgrid="true"
     inkscape:grid-bbox="true"
     inkscape:document-units="px"
     inkscape:showpageshadow="false"
     inkscape:window-width="1920"
     inkscape:window-height="1007"
     inkscape:window-x="0"
     inkscape:window-y="44"
     inkscape:window-maximized="1"
     inkscape:snap-center="true"
     inkscape:snap-nodes="true"
     inkscape:snap-global="true"
     inkscape:snap-object-midpoints="true"
     inkscape:object-paths="true"
     inkscape:snap-intersection-paths="true"
     inkscape:object-nodes="true"
     inkscape:snap-smooth-nodes="true"
     inkscape:snap-midpoints="true"
     inkscape:snap-bbox="true"
     inkscape:bbox-paths="true"
     inkscape:bbox-nodes="true"
     inkscape:snap-bbox-edge-midpoints="true"
     inkscape:snap-bbox-midpoints="true">
    <inkscape:grid
       type="xygrid"
       id="grid8381"
       empspacing="1" />
  </sodipodi:namedview>
  <metadata
     id="metadata7838">
    <rdf:RDF>
      <cc:Work
         rdf:about="">
        <dc:format>image/svg+xml</dc:format>
        <dc:type
           rdf:resource="http://purl.org/dc/dcmitype/StillImage" />
        <dc:title>LibreOffice Symbolic Icon Theme SIFR</dc:title>
        <cc:license
           rdf:resource="http://creativecommons.org/licenses/by-sa/3.0/" />
        <dc:rights>
          <cc:Agent>
            <dc:title>The Document Foundation</dc:title>
          </cc:Agent>
        </dc:rights>
        <dc:contributor>
          <cc:Agent>
            <dc:title>Matthias Freund</dc:title>
          </cc:Agent>
        </dc:contributor>
      </cc:Work>
      <cc:License
         rdf:about="http://creativecommons.org/licenses/by-sa/3.0/">
        <cc:permits
           rdf:resource="http://creativecommons.org/ns#Reproduction" />
        <cc:permits
           rdf:resource="http://creativecommons.org/ns#Distribution" />
        <cc:requires
           rdf:resource="http://creativecommons.org/ns#Notice" />
        <cc:requires
           rdf:resource="http://creativecommons.org/ns#Attribution" />
        <cc:permits
           rdf:resource="http://creativecommons.org/ns#DerivativeWorks" />
        <cc:requires
           rdf:resource="http://creativecommons.org/ns#ShareAlike" />
      </cc:License>
    </rdf:RDF>
  </metadata>
  <g
     id="layer1"
     inkscape:label="symbolic"
     inkscape:groupmode="layer"
     transform="translate(0,-8)">
    <path
       style="color:#000000;font-style:normal;font-variant:normal;font-weight:normal;font-stretch:normal;line-height:normal;font-family:Sans;-inkscape-font-specification:Sans;text-indent:0;text-align:start;text-decoration:none;text-decoration-line:none;letter-spacing:normal;word-spacing:normal;text-transform:none;direction:ltr;block-progression:tb;writing-mode:lr-tb;baseline-shift:baseline;text-anchor:start;display:inline;overflow:visible;visibility:visible;fill:#555753;fill-opacity:1;stroke:none;stroke-width:2;marker:none;enable-background:new"
       d="m 1,11 0,15 0,4 22,0 0,-4 0,-11.84375 -0.9375,0.9375 L 21.59375,15.5 21,16.15625 20.5625,16.59375 20.15625,17 21,17 l 0,3 -3.84375,0 -1,1 4.84375,0 0,3 -5,0 0,-2.84375 -1,1 0,1.84375 -1.84375,0 -1,1 2.84375,0 0,3 -5,0 0,-2 -1,0 0,2 -6,0 0,-3 3,0 0,-0.5 0,-0.5 -3,0 0,-3 3,0 0,-0.0937 0.40625,-0.46875 0.4375,-0.4375 -3.84375,0 0,-3 6,0 L 9,17.8438 10.84375,16 10,16 10,13 13.875,13 15.40625,11.46875 15.875,11 1,11 Z m 2,2 6,0 0,3 -6,0 0,-3 z M 16,15.15625 14.15625,17 15,17 15,17.84375 16.84375,16 16,16 16,15.15625 Z M 11.15625,20 l -1,1 1.6875,0 1,-1 -1.6875,0 z M 10,21.15625 l -1,1 L 9,23 9.84375,23 10,22.84375 10,21.15625 Z M 16,25 l 5,0 0,3 -5,0 0,-3 z"
       id="path6954"
       inkscape:connector-curvature="0" />
    <path
       sodipodi:nodetypes="ccccccccc"
       inkscape:connector-curvature="0"
       id="path6958"
       d="m 3,14.49994 0,-1.49989 3,0 2.99999,0 0,1.49989 0,1.5 -2.99999,0 -3,0 z"
       style="display:inline;opacity:0.35;fill:#555753;fill-opacity:1;stroke:none" />
    <path
       inkscape:connector-curvature="0"
       id="path6960"
       d="m 3.76818,19.97306 c 0.42057,-0.007 1.09557,-0.007 1.5,3e-5 0.40443,0.007 0.0603,0.0135 -0.76467,0.0135 -0.825,-3e-5 -1.1559,-0.006 -0.73533,-0.0135 z"
       style="display:inline;opacity:0.35;fill:#555753;fill-opacity:1;stroke:none" />
    <path
       style="display:inline;opacity:0.35;fill:#555753;fill-opacity:1;stroke:none"
       d="m 3.03125,17 0,1.46875 0,1.5 2.96875,0 0.84375,0 2.125,-2.125 L 8.96875,17 6,17 3.03125,17 Z"
       id="path6962"
       inkscape:connector-curvature="0" />
    <path
       style="display:inline;opacity:0.35;fill:#555753;fill-opacity:1;stroke:none"
       d="m 3.03125,21 0,1.5 0,1.46875 2.96875,0 L 6,21.5 6,21 3.03125,21 Z"
       id="path6964"
       inkscape:connector-curvature="0" />
    <path
       style="display:inline;opacity:0.35;fill:#555753;fill-opacity:1;stroke:none"
       d="M 3,25 3,26.5 3,28 6,28 9,28 9,26.5 9,26 7.5,26 6,26 6,25 3,25 Z"
       id="path6966"
       inkscape:connector-curvature="0" />
    <path
       style="display:inline;opacity:0.35;fill:#555753;fill-opacity:1;stroke:none"
       d="m 12.75,13 -2.75,0.0312 0,1.46875 0,1.46875 0.875,0 L 13.84375,13 12.75,13 Z"
       id="path6968"
       inkscape:connector-curvature="0" />
    <path
       inkscape:connector-curvature="0"
       id="path6974"
       d="m 19.49999,9.52461 -1.5,1.49752 1.5,1.49752 1.5,1.49755 1.49999,-1.49755 c 0,-0.20221 0.004,-0.40983 -0.0469,-0.60836 -0.034,-0.16573 -0.12735,-0.31346 -0.1875,-0.46797 -0.36446,-0.93623 -1.15049,-1.66646 -2.15625,-1.87193 -0.015,-0.003 -0.0319,0.003 -0.0469,0 -0.18457,-0.0438 -0.375,-0.0468 -0.5625,-0.0468 z m -3,2.99504 -8.99999,8.98519 0,2.99506 2.99999,0 9,-8.98518 -3,-2.99507 z"
       style="font-style:normal;font-weight:normal;font-size:40px;line-height:125%;font-family:Sans;letter-spacing:0px;word-spacing:0px;display:inline;fill:#555753;fill-opacity:1;fill-rule:evenodd;stroke:#ffffff;stroke-width:0;stroke-miterlimit:4;stroke-dasharray:none;stroke-opacity:1;marker-start:none" />
  </g>
</svg>
