<?xml version="1.0" encoding="UTF-8" standalone="no"?>
<!-- Created with Inkscape (http://www.inkscape.org/) -->

<svg
   xmlns:dc="http://purl.org/dc/elements/1.1/"
   xmlns:cc="http://creativecommons.org/ns#"
   xmlns:rdf="http://www.w3.org/1999/02/22-rdf-syntax-ns#"
   xmlns:svg="http://www.w3.org/2000/svg"
   xmlns="http://www.w3.org/2000/svg"
   xmlns:sodipodi="http://sodipodi.sourceforge.net/DTD/sodipodi-0.dtd"
   xmlns:inkscape="http://www.inkscape.org/namespaces/inkscape"
   width="24"
   height="24"
   id="svg7833"
   version="1.1"
   inkscape:version="0.91 r13725"
   viewBox="0 0 24 24"
   sodipodi:docname="lc_dbnewform.svg"
   inkscape:export-filename="/home/matthias/GIT/icons/exported-sifr/cmd/32/connector.png"
   inkscape:export-xdpi="89"
   inkscape:export-ydpi="89">
  <title
     id="title9025">LibreOffice Symbolic Icon Theme SIFR</title>
  <defs
     id="defs7835" />
  <sodipodi:namedview
     id="base"
     pagecolor="#ffffff"
     bordercolor="#666666"
     borderopacity="1.0"
     inkscape:pageopacity="0.0"
     inkscape:pageshadow="2"
     inkscape:zoom="7.9180418"
     inkscape:cx="-6.3689106"
     inkscape:cy="12.411288"
     inkscape:current-layer="layer1"
     showgrid="true"
     inkscape:grid-bbox="true"
     inkscape:document-units="px"
     inkscape:showpageshadow="false"
     inkscape:window-width="1920"
     inkscape:window-height="1007"
     inkscape:window-x="0"
     inkscape:window-y="44"
     inkscape:window-maximized="1"
     inkscape:snap-center="true"
     inkscape:snap-nodes="true"
     inkscape:snap-global="true"
     inkscape:snap-object-midpoints="true"
     inkscape:object-paths="true"
     inkscape:snap-intersection-paths="true"
     inkscape:object-nodes="true"
     inkscape:snap-smooth-nodes="true"
     inkscape:snap-midpoints="true"
     inkscape:snap-bbox="true"
     inkscape:bbox-paths="true"
     inkscape:bbox-nodes="true"
     inkscape:snap-bbox-edge-midpoints="true"
     inkscape:snap-bbox-midpoints="true">
    <inkscape:grid
       type="xygrid"
       id="grid8381"
       empspacing="1" />
  </sodipodi:namedview>
  <metadata
     id="metadata7838">
    <rdf:RDF>
      <cc:Work
         rdf:about="">
        <dc:format>image/svg+xml</dc:format>
        <dc:type
           rdf:resource="http://purl.org/dc/dcmitype/StillImage" />
        <dc:title>LibreOffice Symbolic Icon Theme SIFR</dc:title>
        <cc:license
           rdf:resource="http://creativecommons.org/licenses/by-sa/3.0/" />
        <dc:rights>
          <cc:Agent>
            <dc:title>The Document Foundation</dc:title>
          </cc:Agent>
        </dc:rights>
        <dc:contributor>
          <cc:Agent>
            <dc:title>Matthias Freund</dc:title>
          </cc:Agent>
        </dc:contributor>
      </cc:Work>
      <cc:License
         rdf:about="http://creativecommons.org/licenses/by-sa/3.0/">
        <cc:permits
           rdf:resource="http://creativecommons.org/ns#Reproduction" />
        <cc:permits
           rdf:resource="http://creativecommons.org/ns#Distribution" />
        <cc:requires
           rdf:resource="http://creativecommons.org/ns#Notice" />
        <cc:requires
           rdf:resource="http://creativecommons.org/ns#Attribution" />
        <cc:permits
           rdf:resource="http://creativecommons.org/ns#DerivativeWorks" />
        <cc:requires
           rdf:resource="http://creativecommons.org/ns#ShareAlike" />
      </cc:License>
    </rdf:RDF>
  </metadata>
  <g
     id="layer1"
     inkscape:label="symbolic"
     inkscape:groupmode="layer"
     transform="translate(0,-8)">
    <path
       style="display:inline;fill:#555753;fill-opacity:1;stroke:none"
       d="m 3.32031,9.00697 c -0.73299,0 -1.3125,0.57957 -1.3125,1.3125 l 0,18.53125 c 0,0.73295 0.57951,1.15625 1.3125,1.15625 l 9.6875,0 0,-1 0,-3 0,-1.90625 1.4375,0 1.5,0 0,-1.09375 -5.9375,0 c -3e-5,-1.33194 -2e-5,-3.82176 0,-5 l 11,0 0,3 0.5,0 1.5,0 0,-10.6875 c 0,-0.73295 -0.42327,-1.3125 -1.15625,-1.3125 l -18.53125,0 z m 6.6875,3 11,0 0,5 -11,0 0,-5 z m -6,2 4,0 0,1 -4,0 0,-1 z m 0,6 4,0 0,1 -4,0 0,-1 z"
       id="path8670"
       inkscape:connector-curvature="0" />
    <path
       inkscape:connector-curvature="0"
       style="display:inline;fill:#555753;fill-opacity:1;fill-rule:nonzero;stroke:#ffffff;stroke-width:0;stroke-miterlimit:4;stroke-dasharray:none"
       d="m 18.00196,23.00158 0,2.99922 -2.99902,0 0,2.9992 2.99902,0 0,2.99921 2.99902,0 0,-2.99921 2.99902,0 0,-2.9992 -2.99902,0 0,-2.99922 -2.99902,0 z"
       id="path8674" />
  </g>
</svg>
