<?xml version="1.0" encoding="UTF-8" standalone="no"?>
<!-- Created with Inkscape (http://www.inkscape.org/) -->

<svg
   xmlns:dc="http://purl.org/dc/elements/1.1/"
   xmlns:cc="http://creativecommons.org/ns#"
   xmlns:rdf="http://www.w3.org/1999/02/22-rdf-syntax-ns#"
   xmlns:svg="http://www.w3.org/2000/svg"
   xmlns="http://www.w3.org/2000/svg"
   xmlns:sodipodi="http://sodipodi.sourceforge.net/DTD/sodipodi-0.dtd"
   xmlns:inkscape="http://www.inkscape.org/namespaces/inkscape"
   width="24"
   height="24"
   id="svg7833"
   version="1.1"
   inkscape:version="0.91 r13725"
   viewBox="0 0 24 24"
   sodipodi:docname="lc_dbtabledelete.svg"
   inkscape:export-filename="/home/matthias/GIT/icons/exported-sifr/cmd/32/connector.png"
   inkscape:export-xdpi="89"
   inkscape:export-ydpi="89">
  <title
     id="title9025">LibreOffice Symbolic Icon Theme SIFR</title>
  <defs
     id="defs7835" />
  <sodipodi:namedview
     id="base"
     pagecolor="#ffffff"
     bordercolor="#666666"
     borderopacity="1.0"
     inkscape:pageopacity="0.0"
     inkscape:pageshadow="2"
     inkscape:zoom="11.313709"
     inkscape:cx="0.63011228"
     inkscape:cy="9.7001401"
     inkscape:current-layer="layer1"
     showgrid="true"
     inkscape:grid-bbox="true"
     inkscape:document-units="px"
     inkscape:showpageshadow="false"
     inkscape:window-width="1920"
     inkscape:window-height="1007"
     inkscape:window-x="0"
     inkscape:window-y="44"
     inkscape:window-maximized="1"
     inkscape:snap-center="true"
     inkscape:snap-nodes="true"
     inkscape:snap-global="true"
     inkscape:snap-object-midpoints="true"
     inkscape:object-paths="true"
     inkscape:snap-intersection-paths="true"
     inkscape:object-nodes="true"
     inkscape:snap-smooth-nodes="true"
     inkscape:snap-midpoints="true"
     inkscape:snap-bbox="true"
     inkscape:bbox-paths="true"
     inkscape:bbox-nodes="true"
     inkscape:snap-bbox-edge-midpoints="true"
     inkscape:snap-bbox-midpoints="true">
    <inkscape:grid
       type="xygrid"
       id="grid8381"
       empspacing="1" />
  </sodipodi:namedview>
  <metadata
     id="metadata7838">
    <rdf:RDF>
      <cc:Work
         rdf:about="">
        <dc:format>image/svg+xml</dc:format>
        <dc:type
           rdf:resource="http://purl.org/dc/dcmitype/StillImage" />
        <dc:title>LibreOffice Symbolic Icon Theme SIFR</dc:title>
        <cc:license
           rdf:resource="http://creativecommons.org/licenses/by-sa/3.0/" />
        <dc:rights>
          <cc:Agent>
            <dc:title>The Document Foundation</dc:title>
          </cc:Agent>
        </dc:rights>
        <dc:contributor>
          <cc:Agent>
            <dc:title>Matthias Freund</dc:title>
          </cc:Agent>
        </dc:contributor>
      </cc:Work>
      <cc:License
         rdf:about="http://creativecommons.org/licenses/by-sa/3.0/">
        <cc:permits
           rdf:resource="http://creativecommons.org/ns#Reproduction" />
        <cc:permits
           rdf:resource="http://creativecommons.org/ns#Distribution" />
        <cc:requires
           rdf:resource="http://creativecommons.org/ns#Notice" />
        <cc:requires
           rdf:resource="http://creativecommons.org/ns#Attribution" />
        <cc:permits
           rdf:resource="http://creativecommons.org/ns#DerivativeWorks" />
        <cc:requires
           rdf:resource="http://creativecommons.org/ns#ShareAlike" />
      </cc:License>
    </rdf:RDF>
  </metadata>
  <g
     id="layer1"
     inkscape:label="symbolic"
     inkscape:groupmode="layer"
     transform="translate(0,-8)">
    <path
       style="color:#000000;font-style:normal;font-variant:normal;font-weight:normal;font-stretch:normal;line-height:normal;font-family:Sans;-inkscape-font-specification:Sans;text-indent:0;text-align:start;text-decoration:none;text-decoration-line:none;letter-spacing:normal;word-spacing:normal;text-transform:none;direction:ltr;block-progression:tb;writing-mode:lr-tb;baseline-shift:baseline;text-anchor:start;display:inline;overflow:visible;visibility:visible;fill:#555753;fill-opacity:1;stroke:none;stroke-width:2;marker:none;enable-background:new"
       d="M 1,10 1,29 9.03332,28.99988 9,27 l -6,0 0,-3 6,0 0,-1 -6,0 0,-3 6.03332,-1.2e-4 0,-0.3125 c 0,-0.82428 0.3984,-1.56757 1,-2.0625 l 0,-1.625 L 15,16 l 0,1 1,0 0,-1 5,0 0,1 1.34582,-1.2e-4 c 0.22905,-2e-5 0.44067,0.0604 0.65418,0.11714 L 23,10 Z m 2,2 6,0 0,3 -6,0 z m 7,0 5,0 0,3 -5,0 z m 6,0 2.03332,-1.2e-4 L 21,12 l 0,3 -5,0 z m -13,4 6,0 0,3 -6,0 z"
       id="path6981"
       inkscape:connector-curvature="0"
       sodipodi:nodetypes="cccccccccccsccccccccscccccccccccccccccccccccc" />
    <path
       inkscape:connector-curvature="0"
       id="path6987"
       d="m 3.76819,18.97317 c 0.42057,-0.008 1.09557,-0.008 1.5,3e-5 0.40443,0.008 0.0603,0.0135 -0.76467,0.0135 -0.825,-3e-5 -1.1559,-0.006 -0.73533,-0.0135 z"
       style="display:inline;opacity:0.35;fill:#555753;fill-opacity:1;stroke:none" />
    <path
       sodipodi:nodetypes="ccccc"
       inkscape:connector-curvature="0"
       id="path6995"
       d="m 10,12 5,0 0,3 -5,0 z"
       style="display:inline;opacity:0.35;fill:#555753;fill-opacity:1;stroke:none" />
    <path
       sodipodi:nodetypes="sssssssssccccccccccccc"
       inkscape:connector-curvature="0"
       style="display:inline;fill:#555753;fill-opacity:1;stroke:none"
       d="M 12.33332,19 C 11.59466,19 11,19.59465 11,20.33332 l 0,9.33324 c 0,0.73867 0.59466,1.33332 1.33332,1.33332 l 9.36667,0 c 0.73866,0 1.33333,-0.59465 1.33333,-1.33332 l 0,-9.33324 C 23.03332,19.59465 22.43865,19 21.69999,19 Z m 2.35834,0.95832 2.375,3.04166 2.375,-3.04166 2.042,1.70831 -2.417,3.33336 2.417,3.20826 -2.042,1.70831 -2.375,-2.91658 -2.375,2.91658 -2.042,-1.70831 2.517,-3.20826 -2.517,-3.33336 z"
       id="path7001" />
    <path
       sodipodi:nodetypes="ccccc"
       inkscape:connector-curvature="0"
       id="path6995-1"
       d="m 16,12 5,0 0,3 -5,0 z"
       style="display:inline;opacity:0.35;fill:#555753;fill-opacity:1;stroke:none" />
    <path
       sodipodi:nodetypes="ccccc"
       inkscape:connector-curvature="0"
       id="path6995-6"
       d="m 3,12 6,0 0,3 -6,0 z"
       style="display:inline;opacity:0.35;fill:#555753;fill-opacity:1;stroke:none" />
    <path
       sodipodi:nodetypes="ccccc"
       inkscape:connector-curvature="0"
       id="path6995-6-1"
       d="m 3,16 6,0 0,3 -6,0 z"
       style="display:inline;opacity:0.35;fill:#555753;fill-opacity:1;stroke:none" />
    <path
       sodipodi:nodetypes="ccccc"
       inkscape:connector-curvature="0"
       id="path6995-6-3"
       d="m 3,20 6,0 0,3 -6,0 z"
       style="display:inline;opacity:0.35;fill:#555753;fill-opacity:1;stroke:none" />
    <path
       sodipodi:nodetypes="ccccc"
       inkscape:connector-curvature="0"
       id="path6995-6-2"
       d="m 3,24 6,0 0,3 -6,0 z"
       style="display:inline;opacity:0.35;fill:#555753;fill-opacity:1;stroke:none" />
    <path
       sodipodi:nodetypes="cccccc"
       inkscape:connector-curvature="0"
       id="path6995-3"
       d="m 10,16 5,0 0,1 -3,0 c -1.089844,0.0039 -1.703681,0.412829 -1.988837,0.643298 z"
       style="display:inline;opacity:0.35;fill:#555753;fill-opacity:1;stroke:none" />
    <path
       sodipodi:nodetypes="ccccc"
       inkscape:connector-curvature="0"
       id="path6995-3-6"
       d="m 16,16 5,0 0,1 -5,0 z"
       style="display:inline;opacity:0.35;fill:#555753;fill-opacity:1;stroke:none" />
  </g>
</svg>
