<?xml version="1.0" encoding="UTF-8" standalone="no"?>
<!-- Created with Inkscape (http://www.inkscape.org/) -->

<svg
   xmlns:dc="http://purl.org/dc/elements/1.1/"
   xmlns:cc="http://creativecommons.org/ns#"
   xmlns:rdf="http://www.w3.org/1999/02/22-rdf-syntax-ns#"
   xmlns:svg="http://www.w3.org/2000/svg"
   xmlns="http://www.w3.org/2000/svg"
   xmlns:sodipodi="http://sodipodi.sourceforge.net/DTD/sodipodi-0.dtd"
   xmlns:inkscape="http://www.inkscape.org/namespaces/inkscape"
   width="32"
   height="32"
   id="svg7833"
   version="1.1"
   inkscape:version="0.91 r13725"
   viewBox="0 0 32 32"
   sodipodi:docname="selectall.svg">
  <title
     id="title9025">LibreOffice Symbolic Icon Theme SIFR</title>
  <defs
     id="defs7835" />
  <sodipodi:namedview
     id="base"
     pagecolor="#ffffff"
     bordercolor="#666666"
     borderopacity="1.0"
     inkscape:pageopacity="0.0"
     inkscape:pageshadow="2"
     inkscape:zoom="11.197802"
     inkscape:cx="12.773024"
     inkscape:cy="22.716369"
     inkscape:current-layer="layer1"
     showgrid="true"
     inkscape:grid-bbox="true"
     inkscape:document-units="px"
     inkscape:showpageshadow="false"
     inkscape:window-width="1253"
     inkscape:window-height="698"
     inkscape:window-x="239"
     inkscape:window-y="155"
     inkscape:window-maximized="0"
     inkscape:snap-center="true">
    <inkscape:grid
       type="xygrid"
       id="grid8381"
       empspacing="1" />
  </sodipodi:namedview>
  <metadata
     id="metadata7838">
    <rdf:RDF>
      <cc:Work
         rdf:about="">
        <dc:format>image/svg+xml</dc:format>
        <dc:type
           rdf:resource="http://purl.org/dc/dcmitype/StillImage" />
        <dc:title>LibreOffice Symbolic Icon Theme SIFR</dc:title>
        <cc:license
           rdf:resource="http://creativecommons.org/licenses/by-sa/3.0/" />
        <dc:rights>
          <cc:Agent>
            <dc:title>The Document Foundation</dc:title>
          </cc:Agent>
        </dc:rights>
        <dc:contributor>
          <cc:Agent>
            <dc:title>Matthias Freund</dc:title>
          </cc:Agent>
        </dc:contributor>
      </cc:Work>
      <cc:License
         rdf:about="http://creativecommons.org/licenses/by-sa/3.0/">
        <cc:permits
           rdf:resource="http://creativecommons.org/ns#Reproduction" />
        <cc:permits
           rdf:resource="http://creativecommons.org/ns#Distribution" />
        <cc:requires
           rdf:resource="http://creativecommons.org/ns#Notice" />
        <cc:requires
           rdf:resource="http://creativecommons.org/ns#Attribution" />
        <cc:permits
           rdf:resource="http://creativecommons.org/ns#DerivativeWorks" />
        <cc:requires
           rdf:resource="http://creativecommons.org/ns#ShareAlike" />
      </cc:License>
    </rdf:RDF>
  </metadata>
  <g
     id="layer1"
     inkscape:label="Layer 1"
     inkscape:groupmode="layer">
    <path
       style="display:inline;opacity:1;fill:#555753;fill-opacity:1;stroke:none;stroke-width:0;stroke-linecap:round;stroke-linejoin:round;stroke-miterlimit:4;stroke-dasharray:none;stroke-opacity:1"
       d="m 5.999995,2.0000001 c -2.216,0 -4,1.784 -4,4 L 1.999995,26 c 0,2.216 1.784,4 4,4 l 14.19922,0 c -0.0963,-0.2332 -0.16598,-0.42967 -0.25977,-0.6875 L 17.630855,23 5.999995,23 c -1.35232,0.0191 -1.35232,-2.01913 0,-2 l 10.89844,0 -0.45899,-1.25391 C 16.334565,19.4828 16.247165,19.2661 16.164055,19 l -10.16406,0 c -1.35232,0.0191 -1.35232,-2.01913 0,-2 l 10.36914,0 c 0.0236,-0.0165 0.0458,-0.0318 0.0625,-0.0547 0.20741,-0.33332 0.50832,-0.59823 0.86524,-0.76172 0.0192,-0.008 0.0318,-0.0379 0.0508,-0.0449 0.042,-0.0157 0.0558,-9.7e-4 0.0957,-0.0137 0.20413,-0.0753 0.4192,-0.11705 0.63672,-0.12305 0.0664,-0.002 0.13292,-0.001 0.19922,0.004 0.57595,0.0433 0.71621,0.15896 0.88867,0.22656 0.16647,0.0653 0.30876,0.12595 0.47851,0.18946 l 0.0176,0.006 1.5859,0.57205 4.75,0 c 1.05354,-0.0148 1.41075,1.39943 0.47656,1.88672 l 2.82813,1.01953 -0.0703,-0.0234 c 0.27982,0.0894 0.50287,0.16513 0.76562,0.27344 l -1e-5,-14.1562899 c 0,-2.216 -1.784,-4 -4,-4 z m 0,3 20,0 c 1.35232,-0.0191 1.35232,2.01913 0,2 l -20,0 c -1.35232,0.0191 -1.35232,-2.01913 0,-2 z m 0,4 20,0 c 1.35232,-0.0191 1.35232,2.0191299 0,1.9999999 l -20,0 c -1.35232,0.0191 -1.35232,-2.0191299 0,-1.9999999 z m 0,3.9999999 12,0 c 1.35232,-0.0191 1.35232,2.01913 0,2 l -12,0 c -1.35232,0.0191 -1.35232,-2.01913 0,-2 z m 0,12 7,0 c 1.35232,-0.0191 1.35232,2.01913 0,2 l -7,0 c -1.35232,0.0191 -1.35232,-2.01913 0,-2 z"
       id="rect7277"
       inkscape:connector-curvature="0"
       sodipodi:nodetypes="ssssccccccccccccccccccccccccccssscccccccccccccccccccc"
       inkscape:export-filename="/home/matthias/GIT/icons/exported-sifr/cmd/32/selectall.png"
       inkscape:export-xdpi="90"
       inkscape:export-ydpi="90" />
    <path
       inkscape:connector-curvature="0"
       id="path6346-0-9"
       d="m 18.129935,18.00085 c -0.23782,-0.0179 -0.13,0.25828 0.16766,1.00551 l 3.52078,9.61942 c 0.44513,1.22324 0.34813,1.11926 0.90534,-0.0335 l 1.47537,-2.88247 3.99022,3.98854 C 28.383475,29.89243 28.630695,30 28.926995,30 c 0.59259,0 1.073,-0.4802 1.073,-1.07255 0,-0.29618 -0.10761,-0.54329 -0.30179,-0.73738 l -3.99021,-3.98859 2.91721,-1.47475 c 1.09799,-0.54872 1.25447,-0.53767 0,-0.93848 l -9.65698,-3.48578 c -0.43781,-0.16262 -0.69559,-0.29093 -0.83829,-0.30166 z"
       style="color:#000000;display:inline;overflow:visible;visibility:visible;opacity:0.95;fill:#555753;fill-opacity:1;fill-rule:nonzero;stroke:none;stroke-width:4;marker:none;enable-background:accumulate"
       inkscape:export-filename="/home/matthias/GIT/icons/exported-sifr/cmd/32/selectall.png"
       inkscape:export-xdpi="90"
       inkscape:export-ydpi="90">
      <desc
         id="desc6217-2">by Reda Lazri</desc>
    </path>
  </g>
</svg>
